<svg width="265" height="158" viewBox="0 0 265 158" fill="none" xmlns="http://www.w3.org/2000/svg">
<path fill-rule="evenodd" clip-rule="evenodd" d="M120.294 13.5545C124.621 13.9717 129.526 13.6405 133.878 15.0259C143.612 18.125 146.4 27.6049 140.684 36.1449C134.964 44.6917 122.008 48.5323 112.576 44.4778C106.962 42.0646 104.19 37.6045 104.364 31.295C104.395 30.2057 104.368 29.1163 104.368 27.5247C103.013 28.5799 102.102 29.5862 100.967 30.0845C99.9521 30.53 98.3904 30.8954 97.6178 30.4157C96.8012 29.9067 96.1393 28.2985 96.2685 27.2795C96.7561 23.4203 98.7879 20.3291 102.049 18.1894C104.277 16.7259 106.387 17.8827 106.635 20.5655C106.706 21.3501 106.646 22.1463 106.646 23.0921C109.76 20.546 112.728 18.1201 116.322 15.1822C114.548 15.5222 113.46 15.9853 112.444 15.8583C111.329 15.7205 110.048 15.2672 109.307 14.4993C108.96 14.1417 109.423 12.4349 110.02 11.835C113.417 8.42035 117.555 6.44582 122.445 6.52594C124.726 6.56306 125.484 8.35783 123.971 10.134C122.735 11.5898 121.166 12.7612 120.294 13.5545Z" fill="#4A83F6"/>
<path fill-rule="evenodd" clip-rule="evenodd" d="M149.753 36.1625C156.042 36.1664 159.186 40.9361 156.274 46.721C153.313 52.6055 148.422 56.2615 141.575 56.4803C134.934 56.6923 132.652 52.3593 134.722 46.3644C136.662 40.7466 143.81 36.1595 149.753 36.1625Z" fill="#4A83F6"/>
<path fill-rule="evenodd" clip-rule="evenodd" d="M156.006 32.5964C150.332 32.5573 145.276 27.3704 145.29 21.6041C145.3 17.3473 148.301 14.2013 152.327 14.2277C157.946 14.2658 163.757 20.0985 163.729 25.6753C163.707 29.9692 160.738 32.6277 156.006 32.5964Z" fill="#4A83F6"/>
<path fill-rule="evenodd" clip-rule="evenodd" d="M118.672 61.5676C116.037 60.8387 113.308 60.3404 110.793 59.3175C108.306 58.3053 106.469 56.3064 106.51 53.4408C106.55 50.6437 108.478 48.9925 110.971 48.1406C115.838 46.4767 120.713 46.6223 125.315 48.9446C127.875 50.2372 129.94 52.2557 129.325 55.5404C128.702 58.8759 125.908 59.9662 123.108 60.7684C121.756 61.1562 120.256 61.0331 118.823 61.1426C118.773 61.2842 118.723 61.4249 118.672 61.5676Z" fill="#4A83F6"/>
<path fill-rule="evenodd" clip-rule="evenodd" d="M169.596 39.3426C175.248 39.3084 177.742 43.3415 175.337 47.8885C173.209 51.9138 167.88 54.3592 164.123 53.0344C160.491 51.7535 159.136 48.5734 160.848 45.1245C162.721 41.3543 165.943 39.622 169.596 39.3426Z" fill="#4A83F6"/>
<path fill-rule="evenodd" clip-rule="evenodd" d="M128.531 73.8016C126.274 73.1695 124.505 72.938 122.991 72.1935C119.674 70.5609 119.457 66.8727 122.536 64.7985C126.24 62.3032 130.356 62.1225 134.389 63.6945C137.88 65.0545 138.343 68.901 135.211 71.0181C133.179 72.3899 130.609 72.9682 128.531 73.8016Z" fill="#4A83F6"/>
<path fill-rule="evenodd" clip-rule="evenodd" d="M139.485 14.5364C136.851 13.704 133.891 13.1452 131.297 11.8506C128.373 10.391 128.568 7.88106 131.386 6.23774C135.029 4.1147 143.779 4.57292 147.1 7.06136C149.524 8.87566 149.456 11.3573 146.674 12.5922C144.572 13.5252 142.191 13.834 139.485 14.5364Z" fill="#4A83F6"/>
<path fill-rule="evenodd" clip-rule="evenodd" d="M105.759 43.6952C105.977 46.3439 104.932 48.4561 102.529 49.4664C99.9816 50.5362 97.844 49.185 96.2891 47.2749C94.2965 44.8266 92.9972 42.0118 93.9323 38.7271C95.1641 34.4009 99.4273 33.1132 102.461 36.4116C104.221 38.3246 105.187 40.9664 106.51 43.279C106.26 43.4177 106.009 43.5565 105.759 43.6952Z" fill="#4A83F6"/>
<path fill-rule="evenodd" clip-rule="evenodd" d="M157.103 3.26959C159.353 4.37556 161.365 4.99596 162.862 6.23676C163.758 6.97831 164.473 8.9079 164.124 9.90151C163.766 10.9186 161.975 12.0949 160.87 12.0392C158.913 11.9415 156.763 11.3143 155.152 10.2308C154.028 9.47651 152.852 7.33883 153.182 6.27584C153.56 5.06045 155.578 4.35407 157.103 3.26959Z" fill="#4A83F6"/>
<path fill-rule="evenodd" clip-rule="evenodd" d="M99.4724 56.6796C98.5275 58.0161 97.894 59.8597 96.8188 60.1655C95.7613 60.4655 93.8569 59.5344 93.052 58.5506C92.0258 57.2951 91.265 55.4437 91.267 53.8511C91.2689 52.5771 92.3108 50.8136 93.4123 50.205C94.1643 49.7888 96.2088 50.6495 96.9657 51.5396C98.078 52.8497 98.5539 54.6943 99.4724 56.6796Z" fill="#4A83F6"/>
<path fill-rule="evenodd" clip-rule="evenodd" d="M127.494 4.6667C126.413 3.97791 125.34 3.29303 124.265 2.6101C125.34 1.80993 126.312 0.614077 127.513 0.310228C129.135 -0.100115 130.979 -0.0766662 132.643 0.224252C134.355 0.533963 134.637 1.85585 133.061 2.7166C131.497 3.5705 129.665 3.93297 127.494 4.6667Z" fill="#4A83F6"/>
<path fill-rule="evenodd" clip-rule="evenodd" d="M93.5641 28.8007C93.4603 31.9213 91.3355 35.0692 89.7082 34.8582C89.0825 34.7771 88.1689 33.6359 88.1297 32.9374C88.0005 30.6238 90.5453 27.1545 92.1306 27.4026C92.8052 27.5091 93.3311 28.5584 93.5641 28.8007Z" fill="#4A83F6"/>
<path fill-rule="evenodd" clip-rule="evenodd" d="M102.049 15.8261C101.508 14.3439 101.04 13.6425 101.078 12.9703C101.106 12.4818 101.712 11.835 102.219 11.5995C104.01 10.7691 105.866 10.0862 107.698 9.34558C107.81 9.89759 108.203 10.7622 107.989 10.9528C106.279 12.4857 104.451 13.8896 102.049 15.8261Z" fill="#4A83F6"/>
<path d="M0 130.867V91.4481H13.6109C21.1085 91.4481 25.261 95.9943 25.261 101.634C25.261 105.087 23.3001 108.597 19.955 110.266C25.1456 111.129 27.9716 115.042 27.9716 119.531C27.9716 125.976 23.2424 130.867 16.5523 130.867H0ZM13.784 94.2679H3.05669V109.345H13.5533C19.4359 109.345 22.2043 105.892 22.2043 101.806C22.2043 97.7207 19.3206 94.2679 13.784 94.2679ZM16.3793 112.165H3.05669V128.048H16.1486C22.2043 128.048 24.9149 124.192 24.9149 119.761C24.9149 115.675 22.0889 112.165 16.3793 112.165ZM45.6774 101.634C54.04 101.634 60.4994 108.079 60.4994 116.423C60.4994 124.825 54.04 131.27 45.6774 131.27C37.257 131.27 30.7976 124.825 30.7976 116.423C30.7976 108.079 37.257 101.634 45.6774 101.634ZM45.6774 104.339C38.7565 104.339 33.6236 109.633 33.6236 116.481C33.6236 123.271 38.7565 128.566 45.6774 128.566C52.5405 128.566 57.6734 123.271 57.6734 116.481C57.6734 109.633 52.5405 104.339 45.6774 104.339ZM78.2628 101.634C86.6255 101.634 93.0849 108.079 93.0849 116.423C93.0849 124.825 86.6255 131.27 78.2628 131.27C69.8425 131.27 63.3831 124.825 63.3831 116.423C63.3831 108.079 69.8425 101.634 78.2628 101.634ZM78.2628 104.339C71.342 104.339 66.2091 109.633 66.2091 116.481C66.2091 123.271 71.342 128.566 78.2628 128.566C85.126 128.566 90.2589 123.271 90.2589 116.481C90.2589 109.633 85.126 104.339 78.2628 104.339ZM99.6597 116.136L112.636 102.094H116.097L102.659 116.538L118.634 130.867H114.655L99.6597 117.402V130.867H96.8337V91.4481H99.6597V116.136ZM155.603 130.867L145.452 96.1669L135.36 130.867H132.072L120.941 91.4481H124.056L133.86 126.609L144.011 91.4481H147.183L157.333 126.551L167.138 91.4481H170.194L158.89 130.867H155.603ZM187.669 101.634C196.032 101.634 202.491 108.079 202.491 116.423C202.491 124.825 196.032 131.27 187.669 131.27C179.249 131.27 172.79 124.825 172.79 116.423C172.79 108.079 179.249 101.634 187.669 101.634ZM187.669 104.339C180.749 104.339 175.616 109.633 175.616 116.481C175.616 123.271 180.749 128.566 187.669 128.566C194.532 128.566 199.665 123.271 199.665 116.481C199.665 109.633 194.532 104.339 187.669 104.339ZM218.698 101.634V104.741C213.161 104.741 209.066 108.942 209.066 115.215V130.867H206.24V102.094H209.066V107.446C210.162 105.259 213.276 101.634 218.698 101.634ZM225.272 102.094V106.295C226.657 103.936 229.598 101.634 234.327 101.634C238.768 101.634 242.171 103.821 243.786 107.446C245.343 104.511 248.515 101.634 253.878 101.634C260.223 101.634 264.375 106.007 264.375 112.798V130.867H261.549V113.028C261.549 107.561 258.55 104.339 253.59 104.339C248.399 104.339 244.824 107.676 244.824 113.373V130.867H241.998V113.028C241.998 107.561 238.999 104.339 234.039 104.339C228.733 104.339 225.272 107.849 225.272 113.776V130.867H222.446V102.094H225.272Z" fill="#4A83F6"/>
<path d="M99.0701 157.414C97.4134 157.414 96.0563 156.042 96.0563 154.371V144.435C96.0563 144.312 96.162 144.207 96.2854 144.207H97.713V154.53C97.713 155.286 98.3299 155.901 99.0701 155.901H104.569C104.693 155.901 104.798 156.007 104.798 156.13V157.414H99.0701ZM106.808 157.414C106.684 157.414 106.578 157.308 106.578 157.185V144.207H108.006C108.129 144.207 108.235 144.312 108.235 144.435V157.414H106.808ZM111.707 157.414C111.143 157.414 110.685 156.957 110.685 156.394V145.191C110.685 144.646 111.126 144.207 111.672 144.207H111.954H117.312C118.969 144.207 120.308 145.543 120.308 147.196V148.533C120.308 149.377 119.639 150.502 118.687 150.696C119.639 150.942 120.308 152.015 120.308 152.859V154.407C120.308 156.06 118.969 157.414 117.312 157.414H111.707ZM118.652 154.547V152.789C118.652 152.05 118.052 151.452 117.312 151.452H112.342V155.567C112.342 155.743 112.483 155.901 112.677 155.901H117.312C118.052 155.901 118.652 155.286 118.652 154.547ZM112.342 146.053V149.94H117.312C118.052 149.94 118.652 149.342 118.652 148.603V147.056C118.652 146.317 118.052 145.719 117.312 145.719H112.677C112.483 145.719 112.342 145.86 112.342 146.053ZM123.992 151.083H123.957V157.185C123.957 157.308 123.851 157.414 123.728 157.414H122.3V145.227C122.3 144.664 122.758 144.207 123.322 144.207H128.856C130.513 144.207 131.853 145.244 131.853 147.038V148.744C131.853 150.291 130.742 151.136 129.456 151.47L132.276 157.414H130.742C130.619 157.414 130.478 157.308 130.425 157.203L127.746 151.558H125.49H124.979C124.485 151.558 124.115 151.417 123.992 151.083ZM124.292 150.045H128.856C129.597 150.045 130.196 149.447 130.196 148.709V147.056C130.196 146.317 129.597 145.719 128.856 145.719H124.292C124.098 145.719 123.957 145.877 123.957 146.053V149.711C123.957 149.905 124.115 150.045 124.292 150.045ZM140.859 144.33L145.477 157.414H144.032C143.873 157.414 143.75 157.308 143.714 157.185L142.533 153.791H135.801L134.62 157.185C134.585 157.308 134.444 157.414 134.303 157.414H132.857L137.158 145.191C137.369 144.611 137.916 144.207 138.55 144.207H140.648C140.736 144.207 140.824 144.259 140.859 144.33ZM136.329 152.279H142.005L139.713 145.719H138.85C138.709 145.719 138.585 145.807 138.533 145.948L136.329 152.279ZM148.544 151.083H148.508V157.185C148.508 157.308 148.403 157.414 148.279 157.414H146.852V145.227C146.852 144.664 147.31 144.207 147.874 144.207H153.408C155.065 144.207 156.404 145.244 156.404 147.038V148.744C156.404 150.291 155.294 151.136 154.007 151.47L156.827 157.414H155.294C155.171 157.414 155.03 157.308 154.977 157.203L152.298 151.558H150.042H149.531C149.037 151.558 148.667 151.417 148.544 151.083ZM148.843 150.045H153.408C154.148 150.045 154.748 149.447 154.748 148.709V147.056C154.748 146.317 154.148 145.719 153.408 145.719H148.843C148.649 145.719 148.508 145.877 148.508 146.053V149.711C148.508 149.905 148.667 150.045 148.843 150.045ZM167.261 144.207H168.812L166.116 151.048C165.922 151.575 165.499 152.05 164.811 152.05H164.018V157.185C164.018 157.308 163.913 157.414 163.789 157.414H162.344V152.05L161.639 152.032C160.881 152.032 160.44 151.575 160.247 151.048L157.55 144.207H159.101C159.224 144.207 159.365 144.312 159.418 144.418L161.621 150.168C161.692 150.344 161.903 150.485 162.08 150.485H164.283C164.459 150.485 164.67 150.344 164.741 150.168L166.944 144.418C166.997 144.312 167.138 144.207 167.261 144.207Z" fill="#4A83F6"/>
</svg>
